<svg width="48" height="48" viewBox="0 0 48 48" fill="none" xmlns="http://www.w3.org/2000/svg">
<g clip-path="url(#clip0_1357_8994)">
<circle cx="24" cy="24" r="24" fill="white"/>
<path d="M21.1461 30.3339C21.0232 28.7352 21.0232 27.1366 20.9002 25.415C20.9002 24.5542 20.5313 23.9394 19.5475 23.9394C18.9327 23.9394 18.3178 24.0623 18.1948 23.2016C18.0719 22.0948 17.8259 20.8651 18.1948 19.7584C18.1948 19.6354 18.6867 19.3895 18.9327 19.3895C20.7772 19.7584 21.1461 18.7746 21.1461 17.299C21.1461 13.3639 24.4663 11.2734 28.7703 11.5194C30 11.6423 30 12.6261 30 13.4869C29.877 14.3477 30.3689 15.5774 28.7703 15.5774C27.4176 15.4544 26.4339 15.9463 26.4339 17.5449C26.4339 18.6517 26.5568 19.5124 27.9095 19.6354C29.877 19.7584 29.5081 21.1111 29.5081 22.4638C29.6311 23.9394 28.8933 24.4313 27.5406 24.4313C26.1879 24.4313 25.942 25.1691 25.942 26.3988C25.942 29.1041 25.942 31.6865 25.819 34.3919C25.696 36.1134 25.3271 36.2364 22.9907 36.1134C21.3921 36.1134 21.1461 35.3756 21.2691 34.023C21.0232 32.9162 21.0232 31.6865 21.1461 30.3339Z" fill="#213E60"/>
</g>
<defs>
<clipPath id="clip0_1357_8994">
<rect width="48" height="48" fill="white"/>
</clipPath>
</defs>
</svg>
