<svg width="48" height="48" viewBox="0 0 48 48" fill="none" xmlns="http://www.w3.org/2000/svg">
<path d="M10.8 38.3998C11.7224 37.3668 16.0421 32.6132 17.3081 32.6132H30.6929C32.5273 32.6132 36.272 36.5536 37.2 37.9426M43.2 23.9998C43.2 34.6037 34.6039 43.1998 24 43.1998C13.3962 43.1998 4.80005 34.6037 4.80005 23.9998C4.80005 13.3959 13.3962 4.7998 24 4.7998C34.6039 4.7998 43.2 13.3959 43.2 23.9998ZM30.8777 17.4557C30.8777 13.7927 27.7855 10.7998 24.0006 10.7998C20.2159 10.7998 17.1235 13.7927 17.1235 17.4557C17.1235 21.1187 20.2159 24.1116 24.0006 24.1116C27.7854 24.1116 30.8777 21.1187 30.8777 17.4557Z" stroke="#213E60" stroke-width="3.33333"/>
</svg>
