<svg width="48" height="48" viewBox="0 0 48 48" fill="none" xmlns="http://www.w3.org/2000/svg">
<circle cx="24" cy="24" r="24" fill="white"/>
<path d="M23.8302 35.5179C21.7231 35.5179 19.6159 35.644 17.6327 35.5179C14.7819 35.2655 13.6663 34.2563 13.1705 31.2285C12.5508 27.696 12.3029 24.2897 12.6747 20.7573C12.7987 19.4957 12.9226 18.1079 13.1705 16.8463C13.5424 14.197 14.6579 13.0616 17.2609 12.4308C18.3764 12.1784 19.368 12.0523 20.4836 12.1784C22.8386 12.3046 25.1937 12.3046 27.5487 12.0523C28.6643 11.9261 29.6559 12.0523 30.7714 12.1784C32.8786 12.4307 34.366 13.5662 34.6139 15.7109C35.3576 21.0096 35.9774 26.3082 34.9858 31.6069C34.49 34.1301 33.3744 35.1394 30.8954 35.644C28.6643 35.7702 26.3092 35.644 23.8302 35.5179ZM24.326 18.6125C21.4752 18.4864 18.9962 20.6311 18.7483 23.2805C18.5004 26.5606 20.4836 28.7053 23.8302 28.9576C26.4332 29.0838 28.9122 26.8129 29.1601 23.9112C29.408 21.2619 27.1769 18.7387 24.326 18.6125ZM32.0109 16.594C31.887 15.837 31.5152 15.3324 30.6475 15.3324C29.6559 15.3324 29.1601 15.9632 29.1601 16.8463C29.1601 17.7294 29.6559 18.3602 30.6475 18.3602C31.6391 18.2341 32.0109 17.6033 32.0109 16.594Z" fill="#213E60"/>
</svg>
