<svg width="48" height="48" viewBox="0 0 48 48" fill="none" xmlns="http://www.w3.org/2000/svg">
<g clip-path="url(#clip0_1357_8987)">
<circle cx="24" cy="24" r="24" fill="white"/>
<path d="M20.7226 27.2486C20.7226 25.4213 20.7226 23.7246 20.7226 21.8973C20.8531 19.548 22.1583 18.3733 24.2466 19.287C25.2907 19.6785 25.9433 19.809 26.7264 19.4175C28.6842 18.3733 30.3809 19.1564 32.2082 19.809C33.3829 20.2006 34.0355 21.1142 34.427 22.2889C35.4712 25.6824 35.4712 29.0759 35.3407 32.4693C35.3407 33.383 34.9491 34.0356 33.9049 34.1661C33.6439 34.1661 33.5134 34.1661 33.2524 34.2966C29.5978 34.9492 29.2063 34.6882 29.5978 31.0336C29.7283 29.4674 29.9894 27.9012 29.5978 26.335C29.3368 25.5518 29.0758 24.6382 28.0316 24.5077C27.118 24.3772 26.4654 25.0298 25.9433 25.6824C25.4212 26.335 25.2907 27.1181 25.2907 28.0317C25.2907 29.3369 25.2907 30.5116 25.2907 31.8168C25.2907 34.4271 25.1602 34.5576 22.8109 34.4271C20.5921 34.4271 20.592 34.4271 20.592 32.2083C20.7226 30.6421 20.7226 28.9453 20.7226 27.2486Z" fill="#213E60"/>
<path d="M13.5441 26.9875C13.5441 25.1603 13.5441 23.4635 13.5441 21.6362C13.5441 20.07 14.4577 19.809 15.7629 19.6785C17.1986 19.6785 17.4597 20.4616 17.4597 21.6362C17.7207 25.0297 17.7207 28.4232 17.5902 31.8167C17.5902 32.9914 17.5902 34.4271 15.7629 34.4271C14.1967 34.5576 13.4136 33.905 13.4136 32.3388C13.4136 30.5115 13.4136 28.5537 13.4136 26.7265C13.4136 26.9875 13.5441 26.9875 13.5441 26.9875Z" fill="#213E60"/>
<path d="M14.7188 12.5C16.6766 12.5 17.7207 13.2831 17.7207 14.4578C17.7207 15.8935 16.024 17.5902 14.7188 17.5902C13.4136 17.5902 12.5 16.5461 12.5 15.1104C12.6305 13.4136 13.4136 12.5 14.7188 12.5Z" fill="#213E60"/>
</g>
<defs>
<clipPath id="clip0_1357_8987">
<rect width="48" height="48" fill="white"/>
</clipPath>
</defs>
</svg>
