<svg width="48" height="48" viewBox="0 0 48 48" fill="none" xmlns="http://www.w3.org/2000/svg">
<g clip-path="url(#clip0_1357_8981)">
<circle cx="24" cy="24" r="24" fill="white"/>
<path d="M24.8467 35.7975C23.6803 35.6809 22.3973 35.7975 21.231 35.331C19.3648 34.5145 17.4986 34.5145 15.6325 35.6809C15.1659 35.9141 14.5827 36.264 14.1162 35.6809C13.7663 35.3309 13.9996 34.7478 14.1162 34.3979C15.1659 32.0651 14.5827 30.0824 13.6497 27.7496C11.7835 23.2009 12.0168 18.7687 15.6325 15.0364C19.2482 11.4207 23.797 10.8375 28.579 12.1205C30.0953 12.587 31.3783 13.5201 32.5446 14.6864C38.1431 20.6349 38.3764 30.6655 29.7454 34.8644C28.1125 35.6809 26.4796 35.6809 24.8467 35.7975ZM15.6325 34.2812C18.0818 32.4151 20.4145 33.6981 22.7472 34.048C26.1297 34.5145 29.3955 34.3979 32.1947 31.8319C35.1106 29.0326 35.9271 24.2506 34.5274 20.4016C32.7779 15.6195 28.8123 13.0536 24.3801 13.0536C19.2482 13.0536 13.8829 17.2524 14.1162 22.2678C14.2328 24.2506 14.3495 26.2334 15.3992 27.9829C16.5656 29.8491 16.7988 31.7153 15.6325 34.2812Z" fill="#213E60"/>
<path d="M25.5465 26.3504C25.6632 26.2337 25.8964 26.1171 26.0131 26.0005C26.4796 25.3006 26.7129 24.3675 27.8792 24.6008C28.929 24.9507 29.862 25.7672 30.2119 26.8169C30.5618 27.8666 29.862 28.5664 29.1622 29.1496C27.646 30.316 26.1297 29.9661 24.7301 29.2662C21.5809 27.5167 19.8314 24.6008 18.7817 21.2184C18.4318 19.9354 18.8983 18.8857 20.1813 18.1859C20.9977 17.7193 21.6975 17.7193 22.1641 18.4191C22.8639 19.3522 24.3802 20.1687 23.0972 21.6849C22.514 22.3847 22.7473 23.0846 23.2138 23.6678C23.797 24.7175 24.3802 25.7672 25.5465 26.3504Z" fill="#213E60"/>
</g>
<defs>
<clipPath id="clip0_1357_8981">
<rect width="48" height="48" fill="white"/>
</clipPath>
</defs>
</svg>
